<svg 
 xmlns="http://www.w3.org/2000/svg"
 xmlns:xlink="http://www.w3.org/1999/xlink"
 width="44px" height="44px">
<path fill-rule="evenodd"  fill="rgb(255, 255, 255)"
 d="M22.000,-0.000 C9.850,-0.000 -0.000,9.850 -0.000,22.000 C-0.000,34.150 9.850,44.000 22.000,44.000 C34.150,44.000 44.000,34.150 44.000,22.000 C44.000,9.850 34.150,-0.000 22.000,-0.000 ZM29.604,23.166 L18.604,30.041 C18.381,30.180 18.128,30.250 17.875,30.250 C17.646,30.250 17.416,30.193 17.208,30.077 C16.771,29.835 16.500,29.375 16.500,28.875 L16.500,15.125 C16.500,14.625 16.771,14.165 17.208,13.922 C17.645,13.679 18.180,13.694 18.604,13.959 L29.604,20.834 C30.006,21.086 30.250,21.526 30.250,22.000 C30.250,22.474 30.006,22.914 29.604,23.166 Z"/>
</svg>